<svg width="50" height="50" viewBox="0 0 50 50" fill="none" xmlns="http://www.w3.org/2000/svg">
<path d="M25 0C20.0555 0 15.222 1.46622 11.1108 4.21326C6.99952 6.96029 3.79521 10.8648 1.90302 15.4329C0.0108321 20.0011 -0.484251 25.0277 0.480379 29.8772C1.44501 34.7268 3.82603 39.1813 7.32234 42.6777C10.8187 46.174 15.2732 48.555 20.1227 49.5196C24.9723 50.4843 29.9989 49.9892 34.5671 48.097C39.1352 46.2048 43.0397 43.0005 45.7867 38.8892C48.5338 34.778 50 29.9445 50 25C50 21.7169 49.3534 18.466 48.097 15.4329C46.8406 12.3998 44.9991 9.64379 42.6777 7.32233C40.3562 5.00086 37.6002 3.15938 34.5671 1.90301C31.5339 0.646644 28.2831 0 25 0ZM39.19 20.5925L24.19 34.3425C23.7151 34.778 23.0904 35.0132 22.4462 34.9993C21.802 34.9853 21.1881 34.7231 20.7325 34.2675L13.2325 26.7675C12.9937 26.5369 12.8033 26.261 12.6723 25.956C12.5412 25.651 12.4723 25.3229 12.4694 24.991C12.4665 24.659 12.5298 24.3298 12.6555 24.0226C12.7812 23.7154 12.9668 23.4362 13.2015 23.2015C13.4363 22.9668 13.7154 22.7811 14.0226 22.6554C14.3299 22.5297 14.6591 22.4665 14.991 22.4694C15.323 22.4723 15.651 22.5412 15.956 22.6722C16.261 22.8033 16.5369 22.9937 16.7675 23.2325L22.575 29.04L35.81 16.9075C36.2987 16.4593 36.9454 16.2235 37.6078 16.2521C38.2703 16.2807 38.8943 16.5713 39.3425 17.06C39.7907 17.5487 40.0265 18.1954 39.9979 18.8578C39.9693 19.5203 39.6787 20.1443 39.19 20.5925Z" fill="#669BBC"/>
</svg>
