<svg width="50" height="50" viewBox="0 0 50 50" fill="none" xmlns="http://www.w3.org/2000/svg">
<path fill-rule="evenodd" clip-rule="evenodd" d="M25 50C38.8075 50 50 38.8075 50 25C50 11.1925 38.8075 0 25 0C11.1925 0 0 11.1925 0 25C0 38.8075 11.1925 50 25 50ZM21.25 37.4775C21.25 35.31 22.8975 33.75 24.9775 33.75C27.1025 33.75 28.75 35.31 28.75 37.4775C28.75 39.645 27.1025 41.25 24.9775 41.25C22.8975 41.25 21.25 39.645 21.25 37.4775ZM22.93 10C22.7613 10.0002 22.5944 10.0345 22.4394 10.1009C22.2843 10.1672 22.1443 10.2643 22.0277 10.3862C21.9112 10.5082 21.8205 10.6524 21.7612 10.8103C21.7018 10.9682 21.6751 11.1365 21.6825 11.305L22.4475 28.805C22.4617 29.1269 22.5996 29.4309 22.8325 29.6535C23.0654 29.8762 23.3753 30.0003 23.6975 30H26.305C26.6272 30.0003 26.9371 29.8762 27.17 29.6535C27.4029 29.4309 27.5408 29.1269 27.555 28.805L28.3175 11.305C28.3249 11.1363 28.2981 10.9678 28.2386 10.8097C28.1791 10.6517 28.0882 10.5073 27.9714 10.3853C27.8546 10.2634 27.7143 10.1664 27.5589 10.1001C27.4036 10.0339 27.2364 9.99984 27.0675 10H22.93Z" fill="#C1121F"/>
</svg>
