<svg width="27" height="24" viewBox="0 0 27 24" fill="none" xmlns="http://www.w3.org/2000/svg">
<path d="M6.28992 1.92004C4.23698 1.92004 2.57275 3.42436 2.57275 5.28004V18.72C2.57275 20.5757 4.23698 22.08 6.28992 22.08H21.1586C23.2115 22.08 24.8757 20.5757 24.8757 18.72V5.28004C24.8757 3.42436 23.2115 1.92004 21.1586 1.92004H6.28992ZM7.3976 6.24004H11.6126L14.6058 10.0847L18.238 6.24004H19.5655L15.2053 10.8544L20.5819 17.76H16.368L12.8945 13.2994L8.67953 17.76H7.35197L12.295 12.5297L7.3976 6.24004ZM9.43043 7.20004L16.9218 16.8H18.5491L11.0577 7.20004H9.43043Z" fill="#FDF0D5"/>
</svg>
