<svg width="27" height="24" viewBox="0 0 27 24" fill="none" xmlns="http://www.w3.org/2000/svg">
<path d="M8.49632 1.43994C4.68889 1.43994 1.59302 4.23834 1.59302 7.67994V16.3199C1.59302 19.7615 4.68889 22.5599 8.49632 22.5599H18.0548C21.8622 22.5599 24.9581 19.7615 24.9581 16.3199V7.67994C24.9581 4.23834 21.8622 1.43994 18.0548 1.43994H8.49632ZM19.6478 5.27994C20.2319 5.27994 20.7099 5.71194 20.7099 6.23994C20.7099 6.76794 20.2319 7.19994 19.6478 7.19994C19.0637 7.19994 18.5858 6.76794 18.5858 6.23994C18.5858 5.71194 19.0637 5.27994 19.6478 5.27994ZM13.2755 6.71994C16.4989 6.71994 19.1168 9.08634 19.1168 11.9999C19.1168 14.9135 16.4989 17.2799 13.2755 17.2799C10.0522 17.2799 7.43428 14.9135 7.43428 11.9999C7.43428 9.08634 10.0522 6.71994 13.2755 6.71994ZM13.2755 7.67994C10.6417 7.67994 8.49632 9.61914 8.49632 11.9999C8.49632 14.3807 10.6417 16.3199 13.2755 16.3199C15.9094 16.3199 18.0548 14.3807 18.0548 11.9999C18.0548 9.61914 15.9094 7.67994 13.2755 7.67994Z" fill="#FDF0D5"/>
</svg>
