<svg width="45" height="45" viewBox="0 0 45 45" fill="none" xmlns="http://www.w3.org/2000/svg">
<path fill-rule="evenodd" clip-rule="evenodd" d="M11.7582 3.95908C10.24 4.15905 9.43609 4.52483 8.86346 5.08582C8.29086 5.64684 7.91753 6.43447 7.71341 7.92188C7.5033 9.45298 7.5 11.4823 7.5 14.3919V30.4579C8.22876 29.9589 9.05014 29.5793 9.93561 29.3469C10.9259 29.0869 12.0807 29.0872 13.7731 29.0878H37.5V14.3919C37.5 11.4823 37.4966 9.45298 37.2866 7.92186C37.0824 6.43447 36.7091 5.64684 36.1365 5.08582C35.5639 4.52483 34.7601 4.15905 33.2419 3.95908C31.6791 3.75323 29.6077 3.75 26.6379 3.75H18.3621C15.3923 3.75 13.321 3.75323 11.7582 3.95908ZM12.6724 12.3649C12.6724 11.5253 13.3671 10.8446 14.2241 10.8446H30.7759C31.6329 10.8446 32.3276 11.5253 32.3276 12.3649C32.3276 13.2045 31.6329 13.8851 30.7759 13.8851H14.2241C13.3671 13.8851 12.6724 13.2045 12.6724 12.3649ZM14.2241 17.9392C13.3671 17.9392 12.6724 18.6198 12.6724 19.4595C12.6724 20.2991 13.3671 20.9798 14.2241 20.9798H24.5689C25.4259 20.9798 26.1206 20.2991 26.1206 19.4595C26.1206 18.6198 25.4259 17.9392 24.5689 17.9392H14.2241Z" fill="#C1121F"/>
<path d="M16.2932 32.1283H14.0127C11.9887 32.1283 11.2811 32.1414 10.7389 32.2837C9.25066 32.6745 8.06422 33.7582 7.55542 35.1671C7.58688 35.8841 7.63618 36.5149 7.71348 37.0781C7.91759 38.5655 8.29093 39.3532 8.86353 39.9142C9.43616 40.4752 10.2401 40.8409 11.7583 41.0409C13.321 41.2468 15.3923 41.25 18.3621 41.25H26.638C29.6078 41.25 31.6791 41.2468 33.2419 41.0409C34.7601 40.8409 35.5639 40.4752 36.1366 39.9142C36.7092 39.3532 37.0825 38.5655 37.2867 37.0781C37.4581 35.829 37.4918 34.2482 37.4984 32.1283H24.5689V37.7657C24.5689 38.3244 24.5689 38.6036 24.3728 38.7165C24.1765 38.8294 23.9082 38.7045 23.3714 38.4547L20.8011 37.2587C20.6196 37.1741 20.5287 37.1319 20.4312 37.1319C20.3335 37.1319 20.2426 37.1741 20.0611 37.2587L17.4909 38.4547C16.9541 38.7045 16.6857 38.8294 16.4894 38.7165C16.2932 38.6036 16.2932 38.3244 16.2932 37.7657V32.1283Z" fill="#C1121F"/>
</svg>
